<mxfile host="Electron" agent="Mozilla/5.0 (Windows NT 10.0; Win64; x64) AppleWebKit/537.36 (KHTML, like Gecko) draw.io/28.0.6 Chrome/138.0.7204.100 Electron/37.2.3 Safari/537.36" version="28.0.6">
  <diagram name="Page-1" id="c4acf3e9-155e-7222-9cf6-157b1a14988f">
    <mxGraphModel dx="715" dy="542" grid="1" gridSize="10" guides="1" tooltips="1" connect="1" arrows="1" fold="1" page="1" pageScale="1" pageWidth="850" pageHeight="1100" background="none" math="0" shadow="0">
      <root>
        <mxCell id="0" />
        <mxCell id="1" parent="0" />
        <mxCell id="6n2uQg9E0roubneIKp3b-25" style="edgeStyle=orthogonalEdgeStyle;rounded=0;orthogonalLoop=1;jettySize=auto;html=1;entryX=0.5;entryY=0;entryDx=0;entryDy=0;startArrow=block;startFill=1;endArrow=none;endFill=0;" edge="1" parent="1" source="6n2uQg9E0roubneIKp3b-13" target="6n2uQg9E0roubneIKp3b-17">
          <mxGeometry relative="1" as="geometry" />
        </mxCell>
        <mxCell id="6n2uQg9E0roubneIKp3b-27" style="edgeStyle=orthogonalEdgeStyle;rounded=0;orthogonalLoop=1;jettySize=auto;html=1;entryX=0.5;entryY=0;entryDx=0;entryDy=0;endArrow=none;endFill=0;startArrow=block;startFill=1;" edge="1" parent="1" source="6n2uQg9E0roubneIKp3b-13" target="6n2uQg9E0roubneIKp3b-21">
          <mxGeometry relative="1" as="geometry" />
        </mxCell>
        <mxCell id="6n2uQg9E0roubneIKp3b-13" value="Vehicle" style="swimlane;fontStyle=1;align=center;verticalAlign=top;childLayout=stackLayout;horizontal=1;startSize=26;horizontalStack=0;resizeParent=1;resizeParentMax=0;resizeLast=0;collapsible=1;marginBottom=0;whiteSpace=wrap;html=1;" vertex="1" parent="1">
          <mxGeometry x="280" y="280" width="240" height="240" as="geometry" />
        </mxCell>
        <mxCell id="6n2uQg9E0roubneIKp3b-14" value="- bienSoXe: String&lt;div&gt;- hangXe: String&lt;/div&gt;&lt;div&gt;- sucChua: int&lt;/div&gt;&lt;div&gt;- dungTich: double&lt;/div&gt;&lt;div&gt;- mauXe: String&lt;/div&gt;&lt;div&gt;- namSanXuat: int&lt;/div&gt;&lt;div&gt;- vanTocMax: int&lt;br&gt;&lt;div&gt;&lt;br&gt;&lt;/div&gt;&lt;/div&gt;" style="text;strokeColor=none;fillColor=none;align=left;verticalAlign=top;spacingLeft=4;spacingRight=4;overflow=hidden;rotatable=0;points=[[0,0.5],[1,0.5]];portConstraint=eastwest;whiteSpace=wrap;html=1;" vertex="1" parent="6n2uQg9E0roubneIKp3b-13">
          <mxGeometry y="26" width="240" height="114" as="geometry" />
        </mxCell>
        <mxCell id="6n2uQg9E0roubneIKp3b-15" value="" style="line;strokeWidth=1;fillColor=none;align=left;verticalAlign=middle;spacingTop=-1;spacingLeft=3;spacingRight=3;rotatable=0;labelPosition=right;points=[];portConstraint=eastwest;strokeColor=inherit;" vertex="1" parent="6n2uQg9E0roubneIKp3b-13">
          <mxGeometry y="140" width="240" height="8" as="geometry" />
        </mxCell>
        <mxCell id="6n2uQg9E0roubneIKp3b-16" value="+ khoiDong()&lt;div&gt;+ dungLai()&lt;/div&gt;&lt;div&gt;+ moCopXe()&lt;/div&gt;&lt;div&gt;+ canhBaoVaCham()&lt;/div&gt;&lt;div&gt;+ tangToc()&lt;/div&gt;&lt;div&gt;&lt;br&gt;&lt;/div&gt;" style="text;strokeColor=none;fillColor=none;align=left;verticalAlign=top;spacingLeft=4;spacingRight=4;overflow=hidden;rotatable=0;points=[[0,0.5],[1,0.5]];portConstraint=eastwest;whiteSpace=wrap;html=1;" vertex="1" parent="6n2uQg9E0roubneIKp3b-13">
          <mxGeometry y="148" width="240" height="92" as="geometry" />
        </mxCell>
        <mxCell id="6n2uQg9E0roubneIKp3b-17" value="Car" style="swimlane;fontStyle=1;align=center;verticalAlign=top;childLayout=stackLayout;horizontal=1;startSize=30;horizontalStack=0;resizeParent=1;resizeParentMax=0;resizeLast=0;collapsible=1;marginBottom=0;whiteSpace=wrap;html=1;" vertex="1" parent="1">
          <mxGeometry x="120" y="600" width="160" height="90" as="geometry" />
        </mxCell>
        <mxCell id="6n2uQg9E0roubneIKp3b-18" value="- soSan/soTuDong: boolean" style="text;strokeColor=none;fillColor=none;align=left;verticalAlign=top;spacingLeft=4;spacingRight=4;overflow=hidden;rotatable=0;points=[[0,0.5],[1,0.5]];portConstraint=eastwest;whiteSpace=wrap;html=1;" vertex="1" parent="6n2uQg9E0roubneIKp3b-17">
          <mxGeometry y="30" width="160" height="26" as="geometry" />
        </mxCell>
        <mxCell id="6n2uQg9E0roubneIKp3b-19" value="" style="line;strokeWidth=1;fillColor=none;align=left;verticalAlign=middle;spacingTop=-1;spacingLeft=3;spacingRight=3;rotatable=0;labelPosition=right;points=[];portConstraint=eastwest;strokeColor=inherit;" vertex="1" parent="6n2uQg9E0roubneIKp3b-17">
          <mxGeometry y="56" width="160" height="8" as="geometry" />
        </mxCell>
        <mxCell id="6n2uQg9E0roubneIKp3b-20" value="+ batNhac()&lt;div&gt;&lt;br&gt;&lt;/div&gt;" style="text;strokeColor=none;fillColor=none;align=left;verticalAlign=top;spacingLeft=4;spacingRight=4;overflow=hidden;rotatable=0;points=[[0,0.5],[1,0.5]];portConstraint=eastwest;whiteSpace=wrap;html=1;" vertex="1" parent="6n2uQg9E0roubneIKp3b-17">
          <mxGeometry y="64" width="160" height="26" as="geometry" />
        </mxCell>
        <mxCell id="6n2uQg9E0roubneIKp3b-21" value="Bus" style="swimlane;fontStyle=1;align=center;verticalAlign=top;childLayout=stackLayout;horizontal=1;startSize=26;horizontalStack=0;resizeParent=1;resizeParentMax=0;resizeLast=0;collapsible=1;marginBottom=0;whiteSpace=wrap;html=1;" vertex="1" parent="1">
          <mxGeometry x="520" y="600" width="160" height="160" as="geometry" />
        </mxCell>
        <mxCell id="6n2uQg9E0roubneIKp3b-22" value="- tuyenXe: String&lt;div&gt;- loTring: String&lt;/div&gt;&lt;div&gt;&lt;div&gt;&lt;br&gt;&lt;/div&gt;&lt;/div&gt;" style="text;strokeColor=none;fillColor=none;align=left;verticalAlign=top;spacingLeft=4;spacingRight=4;overflow=hidden;rotatable=0;points=[[0,0.5],[1,0.5]];portConstraint=eastwest;whiteSpace=wrap;html=1;" vertex="1" parent="6n2uQg9E0roubneIKp3b-21">
          <mxGeometry y="26" width="160" height="44" as="geometry" />
        </mxCell>
        <mxCell id="6n2uQg9E0roubneIKp3b-23" value="" style="line;strokeWidth=1;fillColor=none;align=left;verticalAlign=middle;spacingTop=-1;spacingLeft=3;spacingRight=3;rotatable=0;labelPosition=right;points=[];portConstraint=eastwest;strokeColor=inherit;" vertex="1" parent="6n2uQg9E0roubneIKp3b-21">
          <mxGeometry y="70" width="160" height="8" as="geometry" />
        </mxCell>
        <mxCell id="6n2uQg9E0roubneIKp3b-24" value="+ moCuaLen()&lt;div&gt;+ moCuaXuong()&lt;/div&gt;&lt;div&gt;+ thongBaoDiemDen()&lt;/div&gt;&lt;div&gt;+ thongBaoLoTrinh()&lt;/div&gt;&lt;div&gt;&lt;br&gt;&lt;div&gt;&lt;br&gt;&lt;/div&gt;&lt;/div&gt;" style="text;strokeColor=none;fillColor=none;align=left;verticalAlign=top;spacingLeft=4;spacingRight=4;overflow=hidden;rotatable=0;points=[[0,0.5],[1,0.5]];portConstraint=eastwest;whiteSpace=wrap;html=1;" vertex="1" parent="6n2uQg9E0roubneIKp3b-21">
          <mxGeometry y="78" width="160" height="82" as="geometry" />
        </mxCell>
      </root>
    </mxGraphModel>
  </diagram>
</mxfile>
